<?xml version="1.0" encoding="UTF-8" standalone="no"?>
<!-- Created with Inkscape (http://www.inkscape.org/) -->

<svg
   width="1500"
   height="1500"
   viewBox="0 0 396.87499 396.87501"
   version="1.1"
   id="svg5"
   inkscape:version="1.1 (c68e22c387, 2021-05-23)"
   inkscape:export-filename="D:\Projects\P_KiteEmAll\Img\Bullet.png"
   inkscape:export-xdpi="96"
   inkscape:export-ydpi="96"
   sodipodi:docname="Bullet.svg"
   xmlns:inkscape="http://www.inkscape.org/namespaces/inkscape"
   xmlns:sodipodi="http://sodipodi.sourceforge.net/DTD/sodipodi-0.dtd"
   xmlns="http://www.w3.org/2000/svg"
   xmlns:svg="http://www.w3.org/2000/svg">
  <sodipodi:namedview
     id="namedview7"
     pagecolor="#505050"
     bordercolor="#ffffff"
     borderopacity="1"
     inkscape:pageshadow="0"
     inkscape:pageopacity="0"
     inkscape:pagecheckerboard="1"
     inkscape:document-units="mm"
     showgrid="true"
     units="px"
     objecttolerance="10000"
     inkscape:zoom="0.55466667"
     inkscape:cx="703.125"
     inkscape:cy="709.4351"
     inkscape:window-width="1920"
     inkscape:window-height="1017"
     inkscape:window-x="-8"
     inkscape:window-y="385"
     inkscape:window-maximized="1"
     inkscape:current-layer="layer1">
    <inkscape:grid
       type="xygrid"
       id="grid9"
       color="#ff3fff"
       opacity="0.1254902"
       empcolor="#ff3fff"
       empopacity="0.4"
       spacingy="6.6145833"
       spacingx="6.6145833"
       empspacing="4" />
  </sodipodi:namedview>
  <defs
     id="defs2" />
  <g
     inkscape:label="Warstwa 1"
     inkscape:groupmode="layer"
     id="layer1"
     style="display:inline">
    <path
       style="fill:none;stroke:#000000;stroke-width:0.264583px;stroke-linecap:butt;stroke-linejoin:miter;stroke-opacity:1"
       d="m 198.4375,33.072916 -66.14584,79.375004 h 6.61459 v 26.45833 L 119.0625,158.75 v 13.22916 h -13.22917 l -66.14583,72.76042 66.14583,79.375 92.60417,46.30208 z"
       id="path459" />
    <path
       style="fill:none;stroke:#000000;stroke-width:0.264583px;stroke-linecap:butt;stroke-linejoin:miter;stroke-opacity:1"
       d="m 198.4375,33.072912 66.14583,79.375008 h -6.61458 v 26.45833 L 277.81249,158.75 v 13.22916 h 13.22917 l 66.14584,72.76042 -66.14584,79.375 -92.60416,46.30208 z"
       id="path459-2" />
    <path
       style="fill:#ffd42a;stroke:#000000;stroke-width:0.264583px;stroke-linecap:butt;stroke-linejoin:miter;stroke-opacity:1"
       d="M 152.13541,138.90625 H 138.90625 L 119.0625,158.75 v 13.22916 l -26.458334,79.375 59.531244,-79.375 z"
       id="path1267" />
    <path
       style="display:inline;fill:#ffd42a;stroke:#000000;stroke-width:0.264583px;stroke-linecap:butt;stroke-linejoin:miter;stroke-opacity:1"
       d="m 244.73959,138.90626 h 13.22916 l 19.84375,19.84375 v 13.22916 l 26.45833,79.375 -59.53124,-79.375 z"
       id="path1267-1" />
    <path
       style="fill:#ffcc00;stroke:#000000;stroke-width:0.264583px;stroke-linecap:butt;stroke-linejoin:miter;stroke-opacity:1"
       d="m 119.0625,171.97916 -19.843751,6.61459 -59.531249,66.14583 66.14583,79.375 92.60417,46.30208 92.60416,-46.30208 66.14584,-79.375 -59.53125,-66.14583 -19.84375,-6.61459 26.45833,79.375 -26.45833,39.6875 -79.375,-46.30208 -79.375,46.30208 -26.458334,-39.6875 z"
       id="path1437"
       sodipodi:nodetypes="ccccccccccccccc" />
    <path
       style="display:inline;fill:#ffdd55;stroke:#000000;stroke-width:0.264583px;stroke-linecap:butt;stroke-linejoin:miter;stroke-opacity:1"
       d="m 138.90625,112.44793 59.53125,19.84374 59.53125,-19.84374 h 6.61458 L 198.4375,33.072925 132.29166,112.44793 Z"
       id="path798-5" />
    <path
       style="display:inline;fill:#c8ab37;stroke:#000000;stroke-width:0.264583px;stroke-linecap:butt;stroke-linejoin:miter;stroke-opacity:1"
       d="m 138.90625,112.44792 59.53125,19.84374 v 112.44792 l -79.375,46.30208 -26.45834,-39.6875 59.53125,-79.375 v -33.07291 h -13.22916 z"
       id="path932-8-1" />
    <path
       style="display:inline;fill:#c8ab37;stroke:#000000;stroke-width:0.264583px;stroke-linecap:butt;stroke-linejoin:miter;stroke-opacity:1"
       d="m 257.96874,112.44793 -59.53125,19.84374 v 112.44791 l 79.375,46.30208 26.45834,-39.6875 -59.53125,-79.37499 v -33.07291 h 13.22916 z"
       id="path932-8-1-1" />
  </g>
</svg>
